<mxfile host="Electron" agent="Mozilla/5.0 (Macintosh; Intel Mac OS X 10_15_7) AppleWebKit/537.36 (KHTML, like Gecko) draw.io/24.7.17 Chrome/128.0.6613.36 Electron/32.0.1 Safari/537.36" version="24.7.17">
  <diagram name="Seite-1" id="v3keM0mUJ4VrhPrlyMGJ">
    <mxGraphModel dx="1026" dy="665" grid="1" gridSize="10" guides="1" tooltips="1" connect="1" arrows="1" fold="1" page="1" pageScale="1" pageWidth="827" pageHeight="1169" math="0" shadow="0">
      <root>
        <mxCell id="0" />
        <mxCell id="1" parent="0" />
        <mxCell id="tx9GDfku9MpJwu6NVmCR-12" value="&lt;font style=&quot;font-size: 14px;&quot;&gt;Environment&lt;/font&gt;" style="text;html=1;align=left;verticalAlign=middle;whiteSpace=wrap;rounded=0;fontStyle=1;movable=1;resizable=1;rotatable=1;deletable=1;editable=1;locked=0;connectable=1;container=0;" parent="1" vertex="1">
          <mxGeometry x="130" y="509.75" width="120" height="30" as="geometry" />
        </mxCell>
        <mxCell id="tx9GDfku9MpJwu6NVmCR-23" value="" style="endArrow=classic;html=1;rounded=0;movable=1;resizable=1;rotatable=1;deletable=1;editable=1;locked=0;connectable=1;" parent="1" source="tx9GDfku9MpJwu6NVmCR-19" edge="1">
          <mxGeometry width="50" height="50" relative="1" as="geometry">
            <mxPoint x="380" y="850" as="sourcePoint" />
            <mxPoint x="160" y="664" as="targetPoint" />
          </mxGeometry>
        </mxCell>
        <mxCell id="tx9GDfku9MpJwu6NVmCR-2" value="" style="rounded=0;whiteSpace=wrap;html=1;fillColor=none;movable=1;resizable=1;rotatable=1;deletable=1;editable=1;locked=0;connectable=1;container=0;" parent="1" vertex="1">
          <mxGeometry x="230" y="509.75" width="220" height="210.25" as="geometry" />
        </mxCell>
        <mxCell id="tx9GDfku9MpJwu6NVmCR-3" value="&lt;b&gt;Organism&lt;/b&gt;" style="rounded=0;whiteSpace=wrap;html=1;fontSize=14;movable=1;resizable=1;rotatable=1;deletable=1;editable=1;locked=0;connectable=1;container=0;" parent="1" vertex="1">
          <mxGeometry x="230" y="509.75" width="85.94" height="31.25" as="geometry" />
        </mxCell>
        <mxCell id="tx9GDfku9MpJwu6NVmCR-18" style="edgeStyle=orthogonalEdgeStyle;rounded=0;orthogonalLoop=1;jettySize=auto;html=1;entryX=0.5;entryY=0;entryDx=0;entryDy=0;movable=1;resizable=1;rotatable=1;deletable=1;editable=1;locked=0;connectable=1;" parent="1" source="tx9GDfku9MpJwu6NVmCR-66" edge="1">
          <mxGeometry relative="1" as="geometry">
            <mxPoint x="335" y="629.6900000000003" as="targetPoint" />
          </mxGeometry>
        </mxCell>
        <mxCell id="tx9GDfku9MpJwu6NVmCR-10" value="internal representation" style="rounded=0;whiteSpace=wrap;html=1;fillColor=default;fontColor=default;strokeColor=default;fontSize=15;movable=1;resizable=1;rotatable=1;deletable=1;editable=1;locked=0;connectable=1;container=0;" parent="1" vertex="1">
          <mxGeometry x="280" y="557.75" width="110" height="43.75" as="geometry" />
        </mxCell>
        <mxCell id="tx9GDfku9MpJwu6NVmCR-15" style="edgeStyle=orthogonalEdgeStyle;rounded=0;orthogonalLoop=1;jettySize=auto;html=1;exitX=0.5;exitY=1;exitDx=0;exitDy=0;movable=1;resizable=1;rotatable=1;deletable=1;editable=1;locked=0;connectable=1;" parent="1" source="tx9GDfku9MpJwu6NVmCR-11" target="tx9GDfku9MpJwu6NVmCR-10" edge="1">
          <mxGeometry relative="1" as="geometry">
            <Array as="points">
              <mxPoint x="226.09375" y="579.75" />
            </Array>
          </mxGeometry>
        </mxCell>
        <mxCell id="tx9GDfku9MpJwu6NVmCR-11" value="Sensor" style="rounded=0;whiteSpace=wrap;html=1;fillColor=default;fontColor=default;strokeColor=default;fontSize=15;movable=1;resizable=1;rotatable=1;deletable=1;editable=1;locked=0;connectable=1;container=0;" parent="1" vertex="1">
          <mxGeometry x="200" y="552.75" width="53.44" height="43.75" as="geometry" />
        </mxCell>
        <mxCell id="tx9GDfku9MpJwu6NVmCR-22" value="" style="endArrow=classic;html=1;rounded=0;movable=1;resizable=1;rotatable=1;deletable=1;editable=1;locked=0;connectable=1;exitX=0.909;exitY=0.735;exitDx=0;exitDy=0;exitPerimeter=0;" parent="1" source="tx9GDfku9MpJwu6NVmCR-2" target="tx9GDfku9MpJwu6NVmCR-66" edge="1">
          <mxGeometry width="50" height="50" relative="1" as="geometry">
            <mxPoint x="435" y="652" as="sourcePoint" />
            <mxPoint x="390" y="651.8042499999999" as="targetPoint" />
          </mxGeometry>
        </mxCell>
        <mxCell id="tx9GDfku9MpJwu6NVmCR-19" value="Actor" style="rounded=0;whiteSpace=wrap;html=1;fillColor=default;fontColor=default;strokeColor=default;fontSize=15;movable=1;resizable=1;rotatable=1;deletable=1;editable=1;locked=0;connectable=1;container=0;" parent="1" vertex="1">
          <mxGeometry x="200" y="647.03" width="57.34" height="34.37" as="geometry" />
        </mxCell>
        <mxCell id="tx9GDfku9MpJwu6NVmCR-20" style="rounded=0;orthogonalLoop=1;jettySize=auto;html=1;movable=1;resizable=1;rotatable=1;deletable=1;editable=1;locked=0;connectable=1;" parent="1" source="tx9GDfku9MpJwu6NVmCR-66" target="tx9GDfku9MpJwu6NVmCR-19" edge="1">
          <mxGeometry relative="1" as="geometry">
            <mxPoint x="280" y="651.6206896551723" as="sourcePoint" />
          </mxGeometry>
        </mxCell>
        <mxCell id="tx9GDfku9MpJwu6NVmCR-24" value="&lt;font style=&quot;font-size: 14px;&quot;&gt;Environment&lt;/font&gt;" style="text;html=1;align=left;verticalAlign=middle;whiteSpace=wrap;rounded=0;fontStyle=1;movable=1;resizable=1;rotatable=1;deletable=1;editable=1;locked=0;connectable=1;container=0;" parent="1" vertex="1">
          <mxGeometry x="50" y="190" width="120" height="30" as="geometry" />
        </mxCell>
        <mxCell id="tx9GDfku9MpJwu6NVmCR-28" value="" style="rounded=0;whiteSpace=wrap;html=1;fillColor=none;movable=1;resizable=1;rotatable=1;deletable=1;editable=1;locked=0;connectable=1;container=0;" parent="1" vertex="1">
          <mxGeometry x="150" y="190" width="220" height="191.25" as="geometry" />
        </mxCell>
        <mxCell id="tx9GDfku9MpJwu6NVmCR-29" value="&lt;b&gt;Organism&lt;/b&gt;" style="rounded=0;whiteSpace=wrap;html=1;fontSize=14;movable=1;resizable=1;rotatable=1;deletable=1;editable=1;locked=0;connectable=1;container=0;" parent="1" vertex="1">
          <mxGeometry x="150" y="190" width="85.94" height="31.25" as="geometry" />
        </mxCell>
        <mxCell id="tx9GDfku9MpJwu6NVmCR-31" value="internal representation" style="rounded=0;whiteSpace=wrap;html=1;fillColor=default;fontColor=default;strokeColor=default;fontSize=15;movable=1;resizable=1;rotatable=1;deletable=1;editable=1;locked=0;connectable=1;container=0;" parent="1" vertex="1">
          <mxGeometry x="200" y="244" width="110" height="43.75" as="geometry" />
        </mxCell>
        <mxCell id="tx9GDfku9MpJwu6NVmCR-32" style="edgeStyle=orthogonalEdgeStyle;rounded=0;orthogonalLoop=1;jettySize=auto;html=1;exitX=0.5;exitY=1;exitDx=0;exitDy=0;movable=1;resizable=1;rotatable=1;deletable=1;editable=1;locked=0;connectable=1;" parent="1" source="tx9GDfku9MpJwu6NVmCR-33" target="tx9GDfku9MpJwu6NVmCR-31" edge="1">
          <mxGeometry relative="1" as="geometry">
            <Array as="points">
              <mxPoint x="146.09375" y="266" />
            </Array>
          </mxGeometry>
        </mxCell>
        <mxCell id="tx9GDfku9MpJwu6NVmCR-33" value="Sensor" style="rounded=0;whiteSpace=wrap;html=1;fillColor=default;fontColor=default;strokeColor=default;fontSize=15;movable=1;resizable=1;rotatable=1;deletable=1;editable=1;locked=0;connectable=1;container=0;" parent="1" vertex="1">
          <mxGeometry x="120" y="239" width="53.44" height="43.75" as="geometry" />
        </mxCell>
        <mxCell id="tx9GDfku9MpJwu6NVmCR-38" value="&lt;font style=&quot;font-size: 14px;&quot;&gt;Environment&lt;/font&gt;" style="text;html=1;align=left;verticalAlign=middle;whiteSpace=wrap;rounded=0;fontStyle=1;movable=1;resizable=1;rotatable=1;deletable=1;editable=1;locked=0;connectable=1;container=0;" parent="1" vertex="1">
          <mxGeometry x="470" y="190" width="120" height="30" as="geometry" />
        </mxCell>
        <mxCell id="tx9GDfku9MpJwu6NVmCR-39" style="rounded=0;orthogonalLoop=1;jettySize=auto;html=1;movable=1;resizable=1;rotatable=1;deletable=1;editable=1;locked=0;connectable=1;" parent="1" source="tx9GDfku9MpJwu6NVmCR-48" target="tx9GDfku9MpJwu6NVmCR-45" edge="1">
          <mxGeometry relative="1" as="geometry">
            <mxPoint x="480" y="240" as="sourcePoint" />
          </mxGeometry>
        </mxCell>
        <mxCell id="tx9GDfku9MpJwu6NVmCR-41" value="" style="rounded=0;whiteSpace=wrap;html=1;fillColor=none;movable=1;resizable=1;rotatable=1;deletable=1;editable=1;locked=0;connectable=1;container=0;" parent="1" vertex="1">
          <mxGeometry x="570" y="190" width="180" height="191.25" as="geometry" />
        </mxCell>
        <mxCell id="tx9GDfku9MpJwu6NVmCR-42" value="&lt;b&gt;Organism&lt;/b&gt;" style="rounded=0;whiteSpace=wrap;html=1;fontSize=14;movable=1;resizable=1;rotatable=1;deletable=1;editable=1;locked=0;connectable=1;container=0;" parent="1" vertex="1">
          <mxGeometry x="570" y="190" width="85.94" height="31.25" as="geometry" />
        </mxCell>
        <mxCell id="tx9GDfku9MpJwu6NVmCR-43" value="internal representation" style="rounded=0;whiteSpace=wrap;html=1;fillColor=default;fontColor=default;strokeColor=default;fontSize=15;movable=1;resizable=1;rotatable=1;deletable=1;editable=1;locked=0;connectable=1;container=0;" parent="1" vertex="1">
          <mxGeometry x="620" y="244" width="110" height="43.75" as="geometry" />
        </mxCell>
        <mxCell id="tx9GDfku9MpJwu6NVmCR-44" style="edgeStyle=orthogonalEdgeStyle;rounded=0;orthogonalLoop=1;jettySize=auto;html=1;exitX=0.5;exitY=1;exitDx=0;exitDy=0;movable=1;resizable=1;rotatable=1;deletable=1;editable=1;locked=0;connectable=1;" parent="1" source="tx9GDfku9MpJwu6NVmCR-45" target="tx9GDfku9MpJwu6NVmCR-43" edge="1">
          <mxGeometry relative="1" as="geometry">
            <Array as="points">
              <mxPoint x="566.09375" y="266" />
            </Array>
          </mxGeometry>
        </mxCell>
        <mxCell id="tx9GDfku9MpJwu6NVmCR-45" value="" style="rounded=0;whiteSpace=wrap;html=1;fillColor=default;fontColor=default;strokeColor=default;fontSize=15;movable=1;resizable=1;rotatable=1;deletable=1;editable=1;locked=0;connectable=1;container=0;" parent="1" vertex="1">
          <mxGeometry x="530" y="239" width="63.44" height="61" as="geometry" />
        </mxCell>
        <mxCell id="tx9GDfku9MpJwu6NVmCR-46" style="rounded=0;orthogonalLoop=1;jettySize=auto;html=1;movable=1;resizable=1;rotatable=1;deletable=1;editable=1;locked=0;connectable=1;" parent="1" source="tx9GDfku9MpJwu6NVmCR-49" target="tx9GDfku9MpJwu6NVmCR-45" edge="1">
          <mxGeometry relative="1" as="geometry">
            <mxPoint x="480" y="260" as="sourcePoint" />
            <mxPoint x="550" y="264" as="targetPoint" />
          </mxGeometry>
        </mxCell>
        <mxCell id="tx9GDfku9MpJwu6NVmCR-47" style="rounded=0;orthogonalLoop=1;jettySize=auto;html=1;movable=1;resizable=1;rotatable=1;deletable=1;editable=1;locked=0;connectable=1;" parent="1" source="tx9GDfku9MpJwu6NVmCR-50" target="tx9GDfku9MpJwu6NVmCR-45" edge="1">
          <mxGeometry relative="1" as="geometry">
            <mxPoint x="480" y="282" as="sourcePoint" />
            <mxPoint x="550" y="282.75" as="targetPoint" />
          </mxGeometry>
        </mxCell>
        <mxCell id="tx9GDfku9MpJwu6NVmCR-48" value="Cue 1" style="text;html=1;align=right;verticalAlign=middle;whiteSpace=wrap;rounded=0;" parent="1" vertex="1">
          <mxGeometry x="416" y="229.75" width="60" height="14.25" as="geometry" />
        </mxCell>
        <mxCell id="tx9GDfku9MpJwu6NVmCR-49" value="Cue 2" style="text;html=1;align=right;verticalAlign=middle;whiteSpace=wrap;rounded=0;" parent="1" vertex="1">
          <mxGeometry x="416" y="258.63" width="60" height="14.25" as="geometry" />
        </mxCell>
        <mxCell id="tx9GDfku9MpJwu6NVmCR-50" value="Cue 3" style="text;html=1;align=right;verticalAlign=middle;whiteSpace=wrap;rounded=0;" parent="1" vertex="1">
          <mxGeometry x="416" y="285.75" width="60" height="14.25" as="geometry" />
        </mxCell>
        <mxCell id="tx9GDfku9MpJwu6NVmCR-51" value="Sensor" style="text;html=1;align=center;verticalAlign=middle;whiteSpace=wrap;rounded=0;" parent="1" vertex="1">
          <mxGeometry x="533.44" y="239" width="60" height="14.25" as="geometry" />
        </mxCell>
        <mxCell id="tx9GDfku9MpJwu6NVmCR-64" value="" style="endArrow=classic;html=1;rounded=0;" parent="1" target="tx9GDfku9MpJwu6NVmCR-33" edge="1">
          <mxGeometry width="50" height="50" relative="1" as="geometry">
            <mxPoint x="80" y="260" as="sourcePoint" />
            <mxPoint x="440" y="470" as="targetPoint" />
          </mxGeometry>
        </mxCell>
        <mxCell id="tx9GDfku9MpJwu6NVmCR-65" value="" style="endArrow=classic;html=1;rounded=0;" parent="1" target="tx9GDfku9MpJwu6NVmCR-11" edge="1">
          <mxGeometry width="50" height="50" relative="1" as="geometry">
            <mxPoint x="160" y="574" as="sourcePoint" />
            <mxPoint x="440" y="464" as="targetPoint" />
          </mxGeometry>
        </mxCell>
        <mxCell id="tx9GDfku9MpJwu6NVmCR-67" value="" style="edgeStyle=orthogonalEdgeStyle;rounded=0;orthogonalLoop=1;jettySize=auto;html=1;entryX=0.5;entryY=0;entryDx=0;entryDy=0;movable=1;resizable=1;rotatable=1;deletable=1;editable=1;locked=0;connectable=1;" parent="1" source="tx9GDfku9MpJwu6NVmCR-10" target="tx9GDfku9MpJwu6NVmCR-66" edge="1">
          <mxGeometry relative="1" as="geometry">
            <mxPoint x="335" y="602" as="sourcePoint" />
            <mxPoint x="335" y="629.6900000000003" as="targetPoint" />
          </mxGeometry>
        </mxCell>
        <mxCell id="tx9GDfku9MpJwu6NVmCR-66" value="&lt;font style=&quot;font-size: 12px;&quot;&gt;internal&lt;br&gt;compu-&lt;br&gt;tations&lt;/font&gt;" style="rhombus;whiteSpace=wrap;html=1;strokeColor=default;fillColor=default;fontColor=default;" parent="1" vertex="1">
          <mxGeometry x="292.5" y="620" width="85" height="88.43" as="geometry" />
        </mxCell>
        <mxCell id="tx9GDfku9MpJwu6NVmCR-73" value="" style="group;strokeColor=none;glass=0;" parent="1" vertex="1" connectable="0">
          <mxGeometry x="540" y="260" width="40" height="30" as="geometry" />
        </mxCell>
        <mxCell id="tx9GDfku9MpJwu6NVmCR-52" value="" style="ellipse;whiteSpace=wrap;html=1;aspect=fixed;" parent="tx9GDfku9MpJwu6NVmCR-73" vertex="1">
          <mxGeometry x="18.73243833905715" width="4.036357274370574" height="4.036357274370574" as="geometry" />
        </mxCell>
        <mxCell id="tx9GDfku9MpJwu6NVmCR-53" value="" style="ellipse;whiteSpace=wrap;html=1;aspect=fixed;" parent="tx9GDfku9MpJwu6NVmCR-73" vertex="1">
          <mxGeometry x="18.73243833905715" y="11.92263693106633" width="4.036357274370574" height="4.036357274370574" as="geometry" />
        </mxCell>
        <mxCell id="tx9GDfku9MpJwu6NVmCR-54" value="" style="ellipse;whiteSpace=wrap;html=1;aspect=fixed;" parent="tx9GDfku9MpJwu6NVmCR-73" vertex="1">
          <mxGeometry x="18.73243833905715" y="23.945464088444133" width="4.036357274370574" height="4.036357274370574" as="geometry" />
        </mxCell>
        <mxCell id="tx9GDfku9MpJwu6NVmCR-60" value="" style="endArrow=classic;html=1;rounded=0;" parent="tx9GDfku9MpJwu6NVmCR-73" source="tx9GDfku9MpJwu6NVmCR-52" edge="1">
          <mxGeometry width="50" height="50" relative="1" as="geometry">
            <mxPoint x="24.542340447494553" y="32.06087241967414" as="sourcePoint" />
            <mxPoint x="40" y="12.123017383689277" as="targetPoint" />
          </mxGeometry>
        </mxCell>
        <mxCell id="tx9GDfku9MpJwu6NVmCR-61" value="" style="endArrow=classic;html=1;rounded=0;" parent="tx9GDfku9MpJwu6NVmCR-73" source="tx9GDfku9MpJwu6NVmCR-53" edge="1">
          <mxGeometry width="50" height="50" relative="1" as="geometry">
            <mxPoint x="29.54217620481269" y="12.623968515246684" as="sourcePoint" />
            <mxPoint x="40" y="16.130626436148543" as="targetPoint" />
          </mxGeometry>
        </mxCell>
        <mxCell id="tx9GDfku9MpJwu6NVmCR-62" value="" style="endArrow=classic;html=1;rounded=0;" parent="tx9GDfku9MpJwu6NVmCR-73" source="tx9GDfku9MpJwu6NVmCR-54" edge="1">
          <mxGeometry width="50" height="50" relative="1" as="geometry">
            <mxPoint x="28.71219018932162" y="9.317691046967816" as="sourcePoint" />
            <mxPoint x="40" y="20.138235488607812" as="targetPoint" />
          </mxGeometry>
        </mxCell>
        <mxCell id="tx9GDfku9MpJwu6NVmCR-70" value="" style="endArrow=classic;html=1;rounded=0;entryX=0.251;entryY=0.697;entryDx=0;entryDy=0;entryPerimeter=0;" parent="tx9GDfku9MpJwu6NVmCR-73" target="tx9GDfku9MpJwu6NVmCR-52" edge="1">
          <mxGeometry width="50" height="50" relative="1" as="geometry">
            <mxPoint y="7.965434141533949" as="sourcePoint" />
            <mxPoint x="16.896659381829515" y="6.053356567840404" as="targetPoint" />
          </mxGeometry>
        </mxCell>
        <mxCell id="tx9GDfku9MpJwu6NVmCR-71" value="" style="endArrow=classic;html=1;rounded=0;" parent="tx9GDfku9MpJwu6NVmCR-73" target="tx9GDfku9MpJwu6NVmCR-53" edge="1">
          <mxGeometry width="50" height="50" relative="1" as="geometry">
            <mxPoint y="15.930868283067898" as="sourcePoint" />
            <mxPoint x="26.849828285981914" y="9.558520969840737" as="targetPoint" />
          </mxGeometry>
        </mxCell>
        <mxCell id="tx9GDfku9MpJwu6NVmCR-72" value="" style="endArrow=classic;html=1;rounded=0;entryX=0.175;entryY=0.545;entryDx=0;entryDy=0;entryPerimeter=0;" parent="tx9GDfku9MpJwu6NVmCR-73" target="tx9GDfku9MpJwu6NVmCR-54" edge="1">
          <mxGeometry width="50" height="50" relative="1" as="geometry">
            <mxPoint y="23.89630242460185" as="sourcePoint" />
            <mxPoint x="24.9765844520762" y="23.09975901044845" as="targetPoint" />
          </mxGeometry>
        </mxCell>
      </root>
    </mxGraphModel>
  </diagram>
</mxfile>
